<?xml version="1.0" standalone="no"?>
<!DOCTYPE svg PUBLIC "-//W3C//DTD SVG 20010904//EN"
 "http://www.w3.org/TR/2001/REC-SVG-20010904/DTD/svg10.dtd">
<svg version="1.0" xmlns="http://www.w3.org/2000/svg"
 width="1199.000000pt" height="1199.000000pt" viewBox="0 0 1199.000000 1199.000000"
 preserveAspectRatio="xMidYMid meet">
<metadata>
Created by potrace 1.11, written by Peter Selinger 2001-2013
</metadata>
<g transform="translate(0.000000,1199.000000) scale(0.100000,-0.100000)"
fill="#000000" stroke="none">
<path d="M5620 10410 c-13 -8 -16 -202 -20 -1616 l-5 -1606 -52 65 c-173 216
-437 442 -658 563 -61 34 -234 120 -270 135 -112 46 -155 61 -252 88 -62 18
-121 34 -130 36 -10 2 -61 12 -113 24 -186 39 -332 51 -605 51 -126 0 -243 -2
-260 -5 -16 -2 -59 -6 -95 -9 -36 -4 -76 -8 -90 -10 -14 -2 -47 -7 -73 -11
-27 -4 -56 -8 -65 -10 -10 -2 -51 -11 -92 -20 -41 -9 -84 -18 -95 -21 -11 -2
-31 -8 -45 -13 -21 -8 -54 -17 -95 -26 -21 -5 -141 -45 -160 -54 -11 -5 -47
-19 -80 -32 -53 -19 -109 -45 -155 -70 -8 -4 -40 -20 -70 -35 -73 -36 -204
-113 -260 -153 -25 -17 -56 -39 -70 -48 -74 -49 -224 -178 -321 -274 -204
-204 -386 -459 -506 -709 -65 -135 -118 -263 -133 -320 -7 -25 -15 -49 -20
-55 -9 -12 -76 -274 -85 -329 -3 -21 -7 -41 -9 -45 -2 -3 -7 -28 -10 -56 -4
-27 -11 -75 -16 -105 -27 -155 -38 -568 -21 -772 11 -133 46 -382 56 -398 2
-3 7 -29 11 -56 3 -27 10 -56 14 -64 4 -8 9 -19 9 -25 1 -5 6 -28 12 -50 6
-22 13 -48 15 -59 6 -32 74 -229 95 -273 10 -24 19 -46 19 -49 0 -12 114 -240
145 -289 17 -27 46 -75 64 -105 121 -202 368 -479 571 -641 97 -77 224 -169
234 -169 3 0 24 -13 48 -29 35 -24 107 -63 238 -132 8 -4 42 -19 75 -34 33
-14 68 -30 77 -35 10 -6 46 -19 80 -31 35 -11 72 -25 83 -30 12 -6 27 -11 35
-13 8 -1 33 -8 55 -14 22 -6 42 -11 45 -10 3 1 14 -4 26 -10 11 -6 32 -13 45
-16 13 -2 69 -13 124 -25 55 -11 118 -23 140 -26 23 -3 52 -8 65 -10 70 -14
211 -20 455 -20 303 0 406 7 565 40 14 3 39 8 55 10 17 3 38 8 47 11 9 3 26 7
37 9 46 11 58 13 96 24 22 6 42 10 45 10 9 0 194 68 255 94 185 79 392 202
550 325 92 72 318 300 378 380 l47 64 0 -445 c0 -392 2 -447 16 -461 14 -14
66 -16 432 -16 331 1 421 3 435 14 16 12 17 80 17 1177 l0 1164 1113 1 c1113
2 1238 5 1512 40 47 6 259 41 295 49 14 3 39 8 55 11 121 22 432 116 544 165
25 11 55 24 66 29 126 54 356 176 363 192 2 4 8 8 14 8 12 0 154 98 223 155
140 114 296 270 370 370 17 22 40 51 53 65 12 14 22 28 22 33 0 4 9 17 20 29
11 12 20 28 20 35 0 7 5 13 10 13 6 0 10 5 10 12 0 6 7 19 15 28 23 26 123
225 165 330 34 87 84 236 95 285 2 11 13 61 24 110 44 197 55 318 55 610 1
325 -9 456 -49 645 -3 14 -10 46 -15 73 -5 26 -17 73 -26 105 -9 31 -16 57
-15 57 3 0 -23 71 -39 110 -5 11 -12 31 -16 45 -27 96 -209 442 -253 480 -4 3
-18 23 -33 45 -14 22 -37 52 -50 67 -13 14 -38 45 -57 68 -68 83 -201 211
-303 290 -10 8 -31 25 -46 38 -33 28 -201 140 -262 176 -78 45 -348 176 -363
176 -7 0 -17 3 -21 7 -31 31 -436 147 -656 187 -372 68 -562 76 -1787 76
l-1053 0 0 206 c0 119 -4 213 -10 224 -10 18 -29 19 -433 20 -253 0 -428 -4
-437 -10z m3126 -1240 c141 -11 312 -34 414 -55 37 -8 77 -16 90 -19 14 -2 59
-14 100 -26 41 -12 89 -25 105 -30 66 -18 218 -80 310 -126 57 -29 73 -38 132
-76 23 -16 46 -28 52 -28 6 0 11 -4 11 -9 0 -5 8 -12 18 -15 10 -4 27 -14 38
-24 10 -9 44 -37 74 -62 73 -59 186 -176 218 -222 13 -21 29 -38 33 -38 5 0 9
-6 9 -14 0 -8 3 -16 8 -18 13 -6 77 -111 120 -199 116 -239 172 -491 177 -804
4 -195 -5 -302 -36 -459 -25 -125 -42 -184 -91 -316 -18 -48 -94 -197 -118
-231 -11 -15 -20 -30 -20 -33 0 -4 -11 -19 -25 -34 -14 -15 -25 -30 -25 -34 0
-29 -249 -273 -345 -338 -29 -19 -125 -81 -151 -97 -55 -34 -230 -115 -299
-138 -45 -15 -211 -67 -226 -70 -8 -2 -44 -10 -80 -19 -72 -18 -267 -50 -409
-67 -64 -8 -459 -13 -1212 -16 l-1118 -4 0 1815 0 1816 1059 0 c622 0 1111 -4
1187 -10z m-4951 -1791 c111 -14 148 -19 175 -24 14 -3 36 -7 50 -10 14 -3 35
-7 48 -10 12 -3 32 -7 44 -10 42 -9 184 -57 283 -95 49 -19 185 -87 233 -117
29 -18 55 -33 59 -33 3 0 58 -39 122 -87 148 -112 284 -250 388 -394 119 -166
161 -242 252 -449 33 -77 98 -288 115 -375 3 -16 8 -41 11 -54 16 -82 20 -172
20 -471 0 -184 -4 -357 -8 -385 -7 -43 -39 -193 -53 -247 -2 -10 -6 -26 -8
-35 -15 -64 -100 -284 -140 -363 -246 -482 -598 -798 -1086 -975 -52 -19 -166
-55 -190 -60 -3 -1 -18 -4 -35 -8 -38 -9 -71 -16 -114 -23 -18 -3 -43 -8 -55
-10 -55 -11 -206 -19 -351 -18 -168 1 -341 21 -475 56 -41 11 -83 21 -92 23
-25 5 -137 45 -175 61 -17 8 -34 14 -38 14 -9 0 -222 107 -266 133 -242 147
-459 362 -608 602 -24 39 -52 81 -61 95 -74 109 -215 491 -231 622 0 4 -7 34
-14 65 -7 32 -16 85 -20 118 -4 33 -9 71 -11 85 -10 49 -13 396 -5 460 5 36
12 94 15 129 4 36 8 67 10 70 2 3 6 29 10 56 3 28 10 65 15 83 5 17 8 32 5 32
-3 0 0 8 5 18 6 11 12 30 14 43 5 24 60 194 77 234 107 262 221 445 398 642
104 117 286 263 422 340 140 79 361 177 428 189 14 3 29 7 34 10 4 3 17 7 28
10 11 2 29 6 40 9 22 6 52 12 90 21 166 35 490 52 645 33z"/>
</g>
</svg>
